STARTFONT 2.1
FONT -ibm-courier-medium-o-normal--14-140-100-100-m-101-iso8859-2
SIZE 14 100 100
FONTBOUNDINGBOX 17 21 -1 -3
COMMENT $Header: courO14.bdf,v 1.1 96/01/22 23:46:56 peterlin Exp $
COMMENT 
COMMENT Copyright International Business Machines,Corp. 1991
COMMENT IBM Courier is a Trademark of the IBM Corporation.
COMMENT 
COMMENT Automatic rendering from Adobe Type 1 outline:
COMMENT Primoz Peterlin <primoz.peterlin@biofiz.mf.uni-lj.si>
COMMENT couri.pfa rendered at 15.000000 points
COMMENT Checksum eb69a063
STARTPROPERTIES 3
FONT_ASCENT 17
FONT_DESCENT 3
DEFAULT_CHAR 32
ENDPROPERTIES
CHARS 191
STARTCHAR space
ENCODING 32
SWIDTH 573 0
DWIDTH 12 0
BBX 0 0 0 1
BITMAP
ENDCHAR
STARTCHAR exclam
ENCODING 33
SWIDTH 573 0
DWIDTH 12 0
BBX 5 12 5 1
BITMAP
18
18
10
10
10
30
20
20
00
60
e0
40
ENDCHAR
STARTCHAR quotedbl
ENCODING 34
SWIDTH 573 0
DWIDTH 12 0
BBX 7 6 5 7
BITMAP
66
66
44
cc
cc
cc
ENDCHAR
STARTCHAR numbersign
ENCODING 35
SWIDTH 573 0
DWIDTH 12 0
BBX 11 15 2 0
BITMAP
0440
0440
08c0
0880
0880
7fe0
1080
1100
1100
3100
ffc0
2200
2200
4600
4400
ENDCHAR
STARTCHAR dollar
ENCODING 36
SWIDTH 573 0
DWIDTH 12 0
BBX 10 17 2 -2
BITMAP
0100
0200
0740
1fc0
3240
2200
2400
1c00
0700
0480
0480
4980
6b00
be00
0800
1000
1000
ENDCHAR
STARTCHAR percent
ENCODING 37
SWIDTH 573 0
DWIDTH 12 0
BBX 9 13 3 1
BITMAP
3800
4400
8400
8400
c880
7780
1e00
f000
c700
0880
1080
1100
0e00
ENDCHAR
STARTCHAR ampersand
ENCODING 38
SWIDTH 573 0
DWIDTH 12 0
BBX 9 11 3 1
BITMAP
1f00
3100
2000
2000
1000
7100
c900
8a00
8400
8c00
7200
ENDCHAR
STARTCHAR quoteright
ENCODING 39
SWIDTH 573 0
DWIDTH 12 0
BBX 5 5 5 8
BITMAP
18
30
60
60
c0
ENDCHAR
STARTCHAR parenleft
ENCODING 40
SWIDTH 573 0
DWIDTH 12 0
BBX 6 16 7 -1
BITMAP
0c
18
10
20
60
40
40
80
80
80
80
80
80
80
40
40
ENDCHAR
STARTCHAR parenright
ENCODING 41
SWIDTH 573 0
DWIDTH 12 0
BBX 6 16 2 -1
BITMAP
08
08
0c
04
04
04
04
04
04
08
08
18
10
20
60
c0
ENDCHAR
STARTCHAR asterisk
ENCODING 42
SWIDTH 573 0
DWIDTH 12 0
BBX 8 7 4 6
BITMAP
08
08
4b
7e
18
2c
4c
ENDCHAR
STARTCHAR plus
ENCODING 43
SWIDTH 573 0
DWIDTH 12 0
BBX 10 9 3 3
BITMAP
0800
0800
0800
0800
ffc0
0800
0800
0800
0800
ENDCHAR
STARTCHAR comma
ENCODING 44
SWIDTH 573 0
DWIDTH 12 0
BBX 5 5 3 -1
BITMAP
18
30
60
60
c0
ENDCHAR
STARTCHAR minus
ENCODING 45
SWIDTH 573 0
DWIDTH 12 0
BBX 10 1 3 7
BITMAP
ffc0
ENDCHAR
STARTCHAR period
ENCODING 46
SWIDTH 573 0
DWIDTH 12 0
BBX 3 3 5 1
BITMAP
e0
e0
c0
ENDCHAR
STARTCHAR slash
ENCODING 47
SWIDTH 573 0
DWIDTH 12 0
BBX 12 18 2 -2
BITMAP
0010
0030
0020
0040
00c0
0080
0100
0300
0200
0400
0c00
0800
1000
3000
2000
4000
c000
8000
ENDCHAR
STARTCHAR zero
ENCODING 48
SWIDTH 573 0
DWIDTH 12 0
BBX 9 13 3 1
BITMAP
0f00
1180
2080
6080
4080
4080
8080
8100
8100
8100
8200
c400
7800
ENDCHAR
STARTCHAR one
ENCODING 49
SWIDTH 573 0
DWIDTH 12 0
BBX 9 13 2 1
BITMAP
0300
1d00
2300
0200
0200
0200
0600
0400
0400
0400
0c00
0800
ff80
ENDCHAR
STARTCHAR two
ENCODING 50
SWIDTH 573 0
DWIDTH 12 0
BBX 10 13 2 1
BITMAP
0f00
18c0
3040
0040
0040
0080
0100
0200
0c00
1800
2100
c100
ff00
ENDCHAR
STARTCHAR three
ENCODING 51
SWIDTH 573 0
DWIDTH 12 0
BBX 9 13 2 1
BITMAP
0f00
1180
0080
0080
0100
0200
0f00
0180
0080
0080
0100
8300
7c00
ENDCHAR
STARTCHAR four
ENCODING 52
SWIDTH 573 0
DWIDTH 12 0
BBX 9 13 2 1
BITMAP
0180
0380
0500
0500
0900
1100
2300
4200
c200
ff80
0200
0600
3f00
ENDCHAR
STARTCHAR five
ENCODING 53
SWIDTH 573 0
DWIDTH 12 0
BBX 10 13 2 1
BITMAP
1fc0
1000
1000
1000
2000
3f00
2180
0080
0080
0080
0100
8300
7c00
ENDCHAR
STARTCHAR six
ENCODING 54
SWIDTH 573 0
DWIDTH 12 0
BBX 10 13 3 1
BITMAP
03c0
0c00
1000
2000
4000
5c00
6200
c100
8100
8100
8200
4600
3800
ENDCHAR
STARTCHAR seven
ENCODING 55
SWIDTH 573 0
DWIDTH 12 0
BBX 9 13 4 1
BITMAP
7f80
8180
8100
0300
0200
0400
0c00
0800
1800
1000
3000
6000
4000
ENDCHAR
STARTCHAR eight
ENCODING 56
SWIDTH 573 0
DWIDTH 12 0
BBX 9 13 3 1
BITMAP
0f00
3180
6080
4080
4180
2300
1e00
6300
4100
8100
8100
c600
7c00
ENDCHAR
STARTCHAR nine
ENCODING 57
SWIDTH 573 0
DWIDTH 12 0
BBX 10 13 2 1
BITMAP
0700
1880
1040
2040
2040
20c0
31c0
0e80
0080
0100
0300
0600
f800
ENDCHAR
STARTCHAR colon
ENCODING 58
SWIDTH 573 0
DWIDTH 12 0
BBX 4 8 5 1
BITMAP
70
70
60
00
00
e0
e0
c0
ENDCHAR
STARTCHAR semicolon
ENCODING 59
SWIDTH 573 0
DWIDTH 12 0
BBX 6 10 3 -1
BITMAP
1c
1c
18
00
00
10
30
20
60
40
ENDCHAR
STARTCHAR less
ENCODING 60
SWIDTH 573 0
DWIDTH 12 0
BBX 10 9 2 3
BITMAP
00c0
0300
0c00
3000
c000
3000
0e00
0380
00c0
ENDCHAR
STARTCHAR equal
ENCODING 61
SWIDTH 573 0
DWIDTH 12 0
BBX 10 5 3 5
BITMAP
ffc0
0000
0000
0000
ffc0
ENDCHAR
STARTCHAR greater
ENCODING 62
SWIDTH 573 0
DWIDTH 12 0
BBX 10 9 3 3
BITMAP
c000
7000
0c00
0300
00c0
0700
1c00
f000
c000
ENDCHAR
STARTCHAR question
ENCODING 63
SWIDTH 573 0
DWIDTH 12 0
BBX 8 12 4 1
BITMAP
7c
c3
81
01
02
0c
30
20
00
60
e0
40
ENDCHAR
STARTCHAR at
ENCODING 64
SWIDTH 573 0
DWIDTH 12 0
BBX 11 11 2 1
BITMAP
0f80
3040
6020
46a0
9920
9320
a240
a640
9b80
4080
3f00
ENDCHAR
STARTCHAR A
ENCODING 65
SWIDTH 573 0
DWIDTH 12 0
BBX 12 12 0 1
BITMAP
0780
0180
0280
0280
0440
0c40
0840
1fc0
1040
2020
2020
f0f0
ENDCHAR
STARTCHAR B
ENCODING 66
SWIDTH 573 0
DWIDTH 12 0
BBX 12 12 1 1
BITMAP
3fc0
0830
0810
1010
1060
1f80
1040
1020
2020
2020
2040
ff80
ENDCHAR
STARTCHAR C
ENCODING 67
SWIDTH 573 0
DWIDTH 12 0
BBX 11 12 3 1
BITMAP
0fa0
10e0
2040
4040
4000
8000
8000
8000
8000
8000
4180
3f00
ENDCHAR
STARTCHAR D
ENCODING 68
SWIDTH 573 0
DWIDTH 12 0
BBX 12 12 1 1
BITMAP
3fc0
0860
1030
1010
1010
1010
3010
2020
2020
2040
2080
ff00
ENDCHAR
STARTCHAR E
ENCODING 69
SWIDTH 573 0
DWIDTH 12 0
BBX 13 12 1 1
BITMAP
3ff8
0808
0818
0810
1080
1f80
1080
1180
1020
3020
2020
ffe0
ENDCHAR
STARTCHAR F
ENCODING 70
SWIDTH 573 0
DWIDTH 12 0
BBX 12 12 2 1
BITMAP
3ff0
0810
0810
1010
1080
1f00
1100
1100
2000
2000
2000
f800
ENDCHAR
STARTCHAR G
ENCODING 71
SWIDTH 573 0
DWIDTH 12 0
BBX 12 12 2 1
BITMAP
0790
1870
2020
6020
4000
8000
8000
83e0
8040
8040
6080
3f00
ENDCHAR
STARTCHAR H
ENCODING 72
SWIDTH 573 0
DWIDTH 12 0
BBX 14 12 1 1
BITMAP
3e7c
0810
0810
1830
1020
1fe0
1020
1020
3060
2040
2040
f9f0
ENDCHAR
STARTCHAR I
ENCODING 73
SWIDTH 573 0
DWIDTH 12 0
BBX 11 12 2 1
BITMAP
3fe0
0200
0200
0200
0400
0400
0400
0400
0800
0800
0800
ff80
ENDCHAR
STARTCHAR J
ENCODING 74
SWIDTH 573 0
DWIDTH 12 0
BBX 13 12 2 1
BITMAP
07f8
0040
0040
0040
0080
0080
4080
4080
8080
8100
c300
7e00
ENDCHAR
STARTCHAR K
ENCODING 75
SWIDTH 573 0
DWIDTH 12 0
BBX 13 12 1 1
BITMAP
3e78
0820
0840
0980
1200
1600
1a00
1100
1100
2080
2080
f8e0
ENDCHAR
STARTCHAR L
ENCODING 76
SWIDTH 573 0
DWIDTH 12 0
BBX 12 12 1 1
BITMAP
3f80
0c00
0c00
0800
0800
1800
1800
1010
1030
1020
2060
ffe0
ENDCHAR
STARTCHAR M
ENCODING 77
SWIDTH 573 0
DWIDTH 12 0
BBX 15 12 0 1
BITMAP
1c1e
0c18
0e28
1228
1248
1248
1290
2290
2310
2010
2030
f8f8
ENDCHAR
STARTCHAR N
ENCODING 78
SWIDTH 573 0
DWIDTH 12 0
BBX 14 12 1 1
BITMAP
3c7c
0c10
0a10
1210
1210
1110
1120
1120
20a0
20a0
20a0
f8c0
ENDCHAR
STARTCHAR O
ENCODING 79
SWIDTH 573 0
DWIDTH 12 0
BBX 11 12 2 1
BITMAP
0780
18c0
2060
4020
4020
8020
8020
8040
8040
c080
6300
3e00
ENDCHAR
STARTCHAR P
ENCODING 80
SWIDTH 573 0
DWIDTH 12 0
BBX 11 12 2 1
BITMAP
3fc0
0860
0820
1020
1020
1060
1fc0
1000
2000
2000
2000
fc00
ENDCHAR
STARTCHAR Q
ENCODING 81
SWIDTH 573 0
DWIDTH 12 0
BBX 11 15 2 -2
BITMAP
0780
18c0
2060
4020
4020
8020
8020
8040
8040
c080
6300
3e00
3000
7c80
4780
ENDCHAR
STARTCHAR R
ENCODING 82
SWIDTH 573 0
DWIDTH 12 0
BBX 11 12 1 1
BITMAP
3fc0
0820
0820
1020
1060
10c0
1f80
1100
2100
2080
2080
f8e0
ENDCHAR
STARTCHAR S
ENCODING 83
SWIDTH 573 0
DWIDTH 12 0
BBX 12 12 1 1
BITMAP
0790
0870
1020
1020
1000
0c00
0380
0040
4040
4040
6080
df00
ENDCHAR
STARTCHAR T
ENCODING 84
SWIDTH 573 0
DWIDTH 12 0
BBX 11 12 3 1
BITMAP
7fe0
4420
4420
8420
8420
0400
0800
0800
0800
0800
0800
7e00
ENDCHAR
STARTCHAR U
ENCODING 85
SWIDTH 573 0
DWIDTH 12 0
BBX 12 12 3 1
BITMAP
f9f0
4040
4040
4080
4080
4080
8080
8080
8100
8100
c200
7c00
ENDCHAR
STARTCHAR V
ENCODING 86
SWIDTH 573 0
DWIDTH 12 0
BBX 13 12 2 1
BITMAP
f8f8
2020
2020
2040
2080
3080
3100
1200
1200
1400
1800
1800
ENDCHAR
STARTCHAR W
ENCODING 87
SWIDTH 573 0
DWIDTH 12 0
BBX 13 12 2 1
BITMAP
f078
4010
4220
4620
4e20
4a40
5a40
d2c0
e380
e380
c380
8100
ENDCHAR
STARTCHAR X
ENCODING 88
SWIDTH 573 0
DWIDTH 12 0
BBX 13 12 1 1
BITMAP
1e78
0820
0440
0480
0380
0200
0300
0500
0880
1080
2040
f1e0
ENDCHAR
STARTCHAR Y
ENCODING 89
SWIDTH 573 0
DWIDTH 12 0
BBX 11 12 3 1
BITMAP
f1e0
2080
2100
2100
1200
1400
1800
0800
0800
1000
1000
fc00
ENDCHAR
STARTCHAR Z
ENCODING 90
SWIDTH 573 0
DWIDTH 12 0
BBX 11 12 2 1
BITMAP
1fe0
2040
2080
2100
0200
0600
0c00
1800
1040
2040
4080
ff80
ENDCHAR
STARTCHAR bracketleft
ENCODING 91
SWIDTH 573 0
DWIDTH 12 0
BBX 7 16 6 -1
BITMAP
1e
10
10
10
20
20
20
20
20
40
40
40
40
40
80
f0
ENDCHAR
STARTCHAR backslash
ENCODING 92
SWIDTH 573 0
DWIDTH 12 0
BBX 5 18 5 -2
BITMAP
80
80
40
40
40
40
40
20
20
20
20
10
10
10
10
08
08
08
ENDCHAR
STARTCHAR bracketright
ENCODING 93
SWIDTH 573 0
DWIDTH 12 0
BBX 7 16 2 -1
BITMAP
1e
02
04
04
04
04
04
08
08
08
08
08
10
10
10
f0
ENDCHAR
STARTCHAR asciicircum
ENCODING 94
SWIDTH 573 0
DWIDTH 12 0
BBX 10 9 3 4
BITMAP
0c00
1e00
1a00
3300
3300
6100
6180
c180
c0c0
ENDCHAR
STARTCHAR underscore
ENCODING 95
SWIDTH 573 0
DWIDTH 12 0
BBX 15 1 -1 -2
BITMAP
fffe
ENDCHAR
STARTCHAR quoteleft
ENCODING 96
SWIDTH 573 0
DWIDTH 12 0
BBX 5 5 5 8
BITMAP
18
30
30
60
c0
ENDCHAR
STARTCHAR a
ENCODING 97
SWIDTH 573 0
DWIDTH 12 0
BBX 10 9 2 1
BITMAP
1f00
0080
0080
3f80
6080
8100
8100
8700
79c0
ENDCHAR
STARTCHAR b
ENCODING 98
SWIDTH 573 0
DWIDTH 12 0
BBX 12 13 0 1
BITMAP
1c00
0800
0800
0800
0bc0
0c20
1810
1010
1010
1010
1020
2840
e780
ENDCHAR
STARTCHAR c
ENCODING 99
SWIDTH 573 0
DWIDTH 12 0
BBX 11 9 2 1
BITMAP
0fa0
30c0
4040
c000
8000
8000
8000
4180
3e00
ENDCHAR
STARTCHAR d
ENCODING 100
SWIDTH 573 0
DWIDTH 12 0
BBX 11 12 2 1
BITMAP
0020
0020
0060
1f40
31c0
40c0
c0c0
8080
8080
8180
4380
3dc0
ENDCHAR
STARTCHAR e
ENCODING 101
SWIDTH 573 0
DWIDTH 12 0
BBX 10 9 2 1
BITMAP
0f80
30c0
6040
c040
ffc0
8000
8000
4080
3f00
ENDCHAR
STARTCHAR f
ENCODING 102
SWIDTH 573 0
DWIDTH 12 0
BBX 11 13 2 1
BITMAP
03e0
0400
0800
0800
3f80
0800
0800
1000
1000
1000
1000
1000
fe00
ENDCHAR
STARTCHAR g
ENCODING 103
SWIDTH 573 0
DWIDTH 12 0
BBX 12 12 2 -2
BITMAP
1e60
2180
4080
8080
8080
8180
8100
4700
3900
0100
0200
7c00
ENDCHAR
STARTCHAR h
ENCODING 104
SWIDTH 573 0
DWIDTH 12 0
BBX 11 13 1 1
BITMAP
3800
0800
0800
0800
13c0
1c20
1020
1060
3060
2040
2040
2040
f1e0
ENDCHAR
STARTCHAR i
ENCODING 105
SWIDTH 573 0
DWIDTH 12 0
BBX 9 15 2 1
BITMAP
0100
0300
0300
0000
0000
0000
3e00
0200
0600
0400
0400
0400
0c00
0800
ff80
ENDCHAR
STARTCHAR j
ENCODING 106
SWIDTH 573 0
DWIDTH 12 0
BBX 10 18 1 -2
BITMAP
0040
00c0
00c0
0000
0000
0000
1f80
0080
0080
0080
0100
0100
0100
0100
0300
0200
0600
f800
ENDCHAR
STARTCHAR k
ENCODING 107
SWIDTH 573 0
DWIDTH 12 0
BBX 12 13 1 1
BITMAP
3c00
0800
0800
0800
09f0
1080
1300
1400
1e00
3300
2100
2080
e1e0
ENDCHAR
STARTCHAR l
ENCODING 108
SWIDTH 573 0
DWIDTH 12 0
BBX 9 13 2 1
BITMAP
1f00
0300
0200
0200
0200
0600
0400
0400
0400
0c00
0c00
0800
ff80
ENDCHAR
STARTCHAR m
ENCODING 109
SWIDTH 573 0
DWIDTH 12 0
BBX 13 9 0 1
BITMAP
3770
1988
1108
1118
2110
2110
2210
2210
f338
ENDCHAR
STARTCHAR n
ENCODING 110
SWIDTH 573 0
DWIDTH 12 0
BBX 11 9 1 1
BITMAP
73c0
1c60
1020
1060
2040
2040
2040
20c0
f3e0
ENDCHAR
STARTCHAR o
ENCODING 111
SWIDTH 573 0
DWIDTH 12 0
BBX 10 9 2 1
BITMAP
0f80
30c0
4040
8040
8040
8040
8080
4100
3e00
ENDCHAR
STARTCHAR p
ENCODING 112
SWIDTH 573 0
DWIDTH 12 0
BBX 12 12 0 -2
BITMAP
3be0
0c30
1810
1010
1010
1010
1020
2840
2780
2000
2000
fc00
ENDCHAR
STARTCHAR q
ENCODING 113
SWIDTH 573 0
DWIDTH 12 0
BBX 12 12 2 -2
BITMAP
1f70
31c0
40c0
c0c0
8080
8080
8180
4380
3d00
0100
0100
0fc0
ENDCHAR
STARTCHAR r
ENCODING 114
SWIDTH 573 0
DWIDTH 12 0
BBX 12 9 1 1
BITMAP
3de0
0f30
0c00
0800
0800
1800
1000
1000
ff00
ENDCHAR
STARTCHAR s
ENCODING 115
SWIDTH 573 0
DWIDTH 12 0
BBX 10 9 2 1
BITMAP
0f40
30c0
2040
2000
1f00
0080
4080
4100
fe00
ENDCHAR
STARTCHAR t
ENCODING 116
SWIDTH 573 0
DWIDTH 12 0
BBX 7 12 4 1
BITMAP
20
20
20
fe
40
40
40
c0
80
80
82
7c
ENDCHAR
STARTCHAR u
ENCODING 117
SWIDTH 573 0
DWIDTH 12 0
BBX 10 9 2 1
BITMAP
e1c0
20c0
2080
2080
4080
4080
4100
4300
3dc0
ENDCHAR
STARTCHAR v
ENCODING 118
SWIDTH 573 0
DWIDTH 12 0
BBX 12 9 2 1
BITMAP
f8f0
2040
2080
2180
3100
1200
1400
1400
0800
ENDCHAR
STARTCHAR w
ENCODING 119
SWIDTH 573 0
DWIDTH 12 0
BBX 13 9 2 1
BITMAP
f078
4010
4620
4620
4a40
4a40
5280
5380
2300
ENDCHAR
STARTCHAR x
ENCODING 120
SWIDTH 573 0
DWIDTH 12 0
BBX 13 9 0 1
BITMAP
3c78
0860
04c0
0700
0300
0500
1880
3040
f1f0
ENDCHAR
STARTCHAR y
ENCODING 121
SWIDTH 573 0
DWIDTH 12 0
BBX 12 12 2 -2
BITMAP
f9f0
2040
20c0
6080
4080
4080
4180
2700
3d00
0100
0200
7c00
ENDCHAR
STARTCHAR z
ENCODING 122
SWIDTH 573 0
DWIDTH 12 0
BBX 10 9 2 1
BITMAP
3fc0
2080
2100
0600
0c00
1800
2080
4080
ff00
ENDCHAR
STARTCHAR braceleft
ENCODING 123
SWIDTH 573 0
DWIDTH 12 0
BBX 7 16 6 -1
BITMAP
0c
18
30
20
20
20
20
60
e0
20
60
40
c0
80
80
60
ENDCHAR
STARTCHAR bar
ENCODING 124
SWIDTH 573 0
DWIDTH 12 0
BBX 1 18 7 -3
BITMAP
80
80
80
80
80
80
80
80
80
80
80
80
80
80
80
80
80
80
ENDCHAR
STARTCHAR braceright
ENCODING 125
SWIDTH 573 0
DWIDTH 12 0
BBX 7 16 2 -1
BITMAP
0c
02
02
02
04
04
08
0c
0e
08
08
08
08
18
10
60
ENDCHAR
STARTCHAR asciitilde
ENCODING 126
SWIDTH 573 0
DWIDTH 12 0
BBX 9 3 3 6
BITMAP
2080
7d00
8600
ENDCHAR
STARTCHAR space
ENCODING 160
SWIDTH 573 0
DWIDTH 12 0
BBX 0 0 0 1
BITMAP
ENDCHAR
STARTCHAR Aogonek
ENCODING 161
SWIDTH 573 0
DWIDTH 12 0
BBX 13 14 0 -1
BITMAP
07c0
01c0
0140
0240
0640
0420
0820
0fe0
1020
2020
2020
f8f0
0040
0060
ENDCHAR
STARTCHAR breve
ENCODING 162
SWIDTH 573 0
DWIDTH 12 0
BBX 7 2 6 12
BITMAP
c6
7c
ENDCHAR
STARTCHAR Lslash
ENCODING 163
SWIDTH 573 0
DWIDTH 12 0
BBX 12 12 1 1
BITMAP
3f80
0c00
0800
08c0
0b80
1e00
7810
5010
1030
1020
3060
ffe0
ENDCHAR
STARTCHAR currency
ENCODING 164
SWIDTH 573 0
DWIDTH 12 0
BBX 9 10 3 2
BITMAP
4080
dd80
6300
4100
4100
4100
4100
2200
dd80
8080
ENDCHAR
STARTCHAR Lcaron
ENCODING 165
SWIDTH 573 0
DWIDTH 12 0
BBX 13 13 1 1
BITMAP
0030
3fc0
0c00
0c00
0800
0800
1800
1800
1010
1030
1020
2060
ffe0
ENDCHAR
STARTCHAR Sacute
ENCODING 166
SWIDTH 573 0
DWIDTH 12 0
BBX 12 16 1 1
BITMAP
0060
0080
0000
0000
0790
0870
1020
1020
1000
0c00
0380
0040
4040
4040
6080
df00
ENDCHAR
STARTCHAR section
ENCODING 167
SWIDTH 573 0
DWIDTH 12 0
BBX 10 14 2 -1
BITMAP
07c0
0840
0840
0800
1c00
2200
2100
1080
1880
0700
0200
4200
4200
7c00
ENDCHAR
STARTCHAR dieresis
ENCODING 168
SWIDTH 573 0
DWIDTH 12 0
BBX 5 2 7 12
BITMAP
d8
d8
ENDCHAR
STARTCHAR Scaron
ENCODING 169
SWIDTH 573 0
DWIDTH 12 0
BBX 12 16 1 1
BITMAP
0110
01a0
00c0
0000
0790
0870
1020
1020
1000
0c00
0380
0040
4040
4040
6080
df00
ENDCHAR
STARTCHAR Scedilla
ENCODING 170
SWIDTH 573 0
DWIDTH 12 0
BBX 12 15 1 -2
BITMAP
0790
0870
1020
1020
1000
0c00
0380
0040
4040
4040
6080
5f00
0400
0600
1e00
ENDCHAR
STARTCHAR Tcaron
ENCODING 171
SWIDTH 573 0
DWIDTH 12 0
BBX 11 16 3 1
BITMAP
0880
0d00
0600
0000
7fe0
4420
4420
8420
8420
0400
0800
0800
0800
0800
0800
7e00
ENDCHAR
STARTCHAR Zacute
ENCODING 172
SWIDTH 573 0
DWIDTH 12 0
BBX 11 16 2 1
BITMAP
0180
0200
0000
0000
1fe0
2040
2080
2100
0200
0600
0c00
1800
1040
2040
4080
ff80
ENDCHAR
STARTCHAR hyphen
ENCODING 173
SWIDTH 573 0
DWIDTH 12 0
BBX 4 1 6 7
BITMAP
f0
ENDCHAR
STARTCHAR Zcaron
ENCODING 174
SWIDTH 573 0
DWIDTH 12 0
BBX 11 16 2 1
BITMAP
0440
0680
0300
0000
1fe0
2040
2080
2100
0200
0600
0c00
1800
1040
2040
4080
ff80
ENDCHAR
STARTCHAR Zdotaccent
ENCODING 175
SWIDTH 573 0
DWIDTH 12 0
BBX 11 16 2 1
BITMAP
0100
0100
0000
0000
1fe0
2040
2080
2100
0200
0600
0c00
1800
1040
2040
4080
ff80
ENDCHAR
STARTCHAR degree
ENCODING 176
SWIDTH 573 0
DWIDTH 12 0
BBX 6 6 5 8
BITMAP
70
c8
84
84
8c
78
ENDCHAR
STARTCHAR aogonek
ENCODING 177
SWIDTH 573 0
DWIDTH 12 0
BBX 10 11 2 -1
BITMAP
1f80
0080
0080
3f80
6080
8100
8100
8700
79c0
0200
0300
ENDCHAR
STARTCHAR ogonek
ENCODING 178
SWIDTH 573 0
DWIDTH 12 0
BBX 3 3 5 -2
BITMAP
60
a0
c0
ENDCHAR
STARTCHAR lslash
ENCODING 179
SWIDTH 573 0
DWIDTH 12 0
BBX 10 13 2 1
BITMAP
1f00
0200
0200
0200
0240
0780
0e00
7c00
2400
0400
0800
0800
ff80
ENDCHAR
STARTCHAR acute
ENCODING 180
SWIDTH 573 0
DWIDTH 12 0
BBX 5 2 6 12
BITMAP
30
40
ENDCHAR
STARTCHAR lcaron
ENCODING 181
SWIDTH 573 0
DWIDTH 12 0
BBX 12 13 2 1
BITMAP
1f60
0380
0200
0200
0200
0600
0400
0400
0400
0c00
0c00
0800
ff80
ENDCHAR
STARTCHAR sacute
ENCODING 182
SWIDTH 573 0
DWIDTH 12 0
BBX 10 13 2 1
BITMAP
0300
0400
0000
0000
0f40
30c0
2040
2000
1f00
0080
4080
4100
fe00
ENDCHAR
STARTCHAR caron
ENCODING 183
SWIDTH 573 0
DWIDTH 12 0
BBX 5 2 6 12
BITMAP
98
70
ENDCHAR
STARTCHAR cedilla
ENCODING 184
SWIDTH 573 0
DWIDTH 12 0
BBX 4 4 4 -2
BITMAP
20
30
10
f0
ENDCHAR
STARTCHAR scaron
ENCODING 185
SWIDTH 573 0
DWIDTH 12 0
BBX 10 13 2 1
BITMAP
0980
0700
0000
0000
0f40
30c0
2040
2000
1f00
0080
4080
4100
fe00
ENDCHAR
STARTCHAR scedilla
ENCODING 186
SWIDTH 573 0
DWIDTH 12 0
BBX 11 12 2 -2
BITMAP
1f20
30c0
2040
2000
1f00
0080
4080
4100
fe00
0c00
0400
3c00
ENDCHAR
STARTCHAR tcaron
ENCODING 187
SWIDTH 573 0
DWIDTH 12 0
BBX 9 13 4 1
BITMAP
0300
2400
2000
2000
fe00
4000
4000
4000
c000
8000
8000
8200
7c00
ENDCHAR
STARTCHAR zacute
ENCODING 188
SWIDTH 573 0
DWIDTH 12 0
BBX 10 13 2 1
BITMAP
0300
0400
0000
0000
3fc0
2080
2100
0600
0c00
1800
2080
4080
ff00
ENDCHAR
STARTCHAR hungarumlaut
ENCODING 189
SWIDTH 573 0
DWIDTH 12 0
BBX 7 2 6 12
BITMAP
24
48
ENDCHAR
STARTCHAR zcaron
ENCODING 190
SWIDTH 573 0
DWIDTH 12 0
BBX 10 13 2 1
BITMAP
0980
0700
0000
0000
3fc0
2080
2100
0600
0c00
1800
2080
4080
ff00
ENDCHAR
STARTCHAR zdotaccent
ENCODING 191
SWIDTH 573 0
DWIDTH 12 0
BBX 10 13 2 1
BITMAP
0200
0200
0000
0000
3fc0
2080
2100
0600
0c00
1800
2080
4080
ff00
ENDCHAR
STARTCHAR Racute
ENCODING 192
SWIDTH 573 0
DWIDTH 12 0
BBX 12 16 1 1
BITMAP
0060
0080
0000
0000
3fc0
0820
0820
1020
1060
10c0
1f80
1100
2100
2080
2080
f8e0
ENDCHAR
STARTCHAR Aacute
ENCODING 193
SWIDTH 573 0
DWIDTH 12 0
BBX 12 16 0 1
BITMAP
00c0
0100
0000
0000
0780
0180
0280
0280
0440
0c40
0840
1fc0
1040
2020
2020
f0f0
ENDCHAR
STARTCHAR Acircumflex
ENCODING 194
SWIDTH 573 0
DWIDTH 12 0
BBX 12 16 0 1
BITMAP
00c0
0160
0220
0000
0780
0180
0280
0280
0440
0c40
0840
1fc0
1040
2020
2020
f0f0
ENDCHAR
STARTCHAR Abreve
ENCODING 195
SWIDTH 573 0
DWIDTH 12 0
BBX 13 16 0 1
BITMAP
0218
0130
01e0
0000
0780
0180
0280
0280
0440
0c40
0840
1fc0
1040
2020
2020
f0f0
ENDCHAR
STARTCHAR Adieresis
ENCODING 196
SWIDTH 573 0
DWIDTH 12 0
BBX 12 16 0 1
BITMAP
01b0
01b0
0000
0000
0780
0180
0280
0280
0440
0c40
0840
1fc0
1040
2020
2020
f0f0
ENDCHAR
STARTCHAR Lacute
ENCODING 197
SWIDTH 573 0
DWIDTH 12 0
BBX 12 16 1 1
BITMAP
0300
0400
0000
0000
3f80
0c00
0c00
0800
0800
1800
1800
1010
1030
1020
2060
ffe0
ENDCHAR
STARTCHAR Cacute
ENCODING 198
SWIDTH 573 0
DWIDTH 12 0
BBX 11 16 3 1
BITMAP
0180
0200
0000
0000
0fa0
10e0
2040
4040
4000
8000
8000
8000
8000
8000
4180
3f00
ENDCHAR
STARTCHAR Ccedilla
ENCODING 199
SWIDTH 573 0
DWIDTH 12 0
BBX 11 15 3 -2
BITMAP
0fa0
10e0
2040
4040
4000
8000
8000
8000
8000
8000
4180
3f00
1800
0400
7800
ENDCHAR
STARTCHAR Ccaron
ENCODING 200
SWIDTH 573 0
DWIDTH 12 0
BBX 11 16 3 1
BITMAP
0440
0680
0300
0000
0fa0
10e0
2040
4040
4000
8000
8000
8000
8000
8000
4180
3f00
ENDCHAR
STARTCHAR Eacute
ENCODING 201
SWIDTH 573 0
DWIDTH 12 0
BBX 13 16 1 1
BITMAP
0060
0080
0000
0000
3ff8
0808
0818
0810
1080
1f80
1080
1180
1020
3020
2020
ffe0
ENDCHAR
STARTCHAR Eogonek
ENCODING 202
SWIDTH 573 0
DWIDTH 12 0
BBX 13 14 1 -1
BITMAP
1ff8
0810
0810
0810
0880
1f80
1080
1080
1020
3020
2020
ffc0
0100
0180
ENDCHAR
STARTCHAR Edieresis
ENCODING 203
SWIDTH 573 0
DWIDTH 12 0
BBX 13 16 1 1
BITMAP
01b0
01b0
0000
0000
3ff8
0808
0818
0810
1080
1f80
1080
1180
1020
3020
2020
ffe0
ENDCHAR
STARTCHAR Ecaron
ENCODING 204
SWIDTH 573 0
DWIDTH 12 0
BBX 13 16 1 1
BITMAP
0110
01a0
00c0
0000
3ff8
0808
0818
0810
1080
1f80
1080
1180
1020
3020
2020
ffe0
ENDCHAR
STARTCHAR Iacute
ENCODING 205
SWIDTH 573 0
DWIDTH 12 0
BBX 11 16 2 1
BITMAP
0180
0200
0000
0000
3fe0
0200
0200
0200
0400
0400
0400
0400
0800
0800
0800
ff80
ENDCHAR
STARTCHAR Icircumflex
ENCODING 206
SWIDTH 573 0
DWIDTH 12 0
BBX 11 16 2 1
BITMAP
0180
02c0
0440
0000
3fe0
0200
0200
0200
0400
0400
0400
0400
0800
0800
0800
ff80
ENDCHAR
STARTCHAR Dcaron
ENCODING 207
SWIDTH 573 0
DWIDTH 12 0
BBX 12 16 1 1
BITMAP
0220
0340
0180
0000
3fc0
0860
1030
1010
1010
1010
3010
2020
2020
2040
2080
ff00
ENDCHAR
STARTCHAR Eth
ENCODING 208
SWIDTH 573 0
DWIDTH 12 0
BBX 12 12 1 1
BITMAP
3fc0
0860
1030
1010
1010
7e10
3010
2020
2020
2040
2080
ff00
ENDCHAR
STARTCHAR Nacute
ENCODING 209
SWIDTH 573 0
DWIDTH 12 0
BBX 14 16 1 1
BITMAP
0060
0080
0000
0000
3c7c
0c10
0a10
1210
1210
1110
1120
1120
20a0
20a0
20a0
f8c0
ENDCHAR
STARTCHAR Ncaron
ENCODING 210
SWIDTH 573 0
DWIDTH 12 0
BBX 14 16 1 1
BITMAP
0110
01a0
00c0
0000
3c7c
0c10
0a10
1210
1210
1110
1120
1120
20a0
20a0
20a0
f8c0
ENDCHAR
STARTCHAR Oacute
ENCODING 211
SWIDTH 573 0
DWIDTH 12 0
BBX 11 16 2 1
BITMAP
00c0
0100
0000
0000
0780
18c0
2060
4020
4020
8020
8020
8040
8040
c080
6300
3e00
ENDCHAR
STARTCHAR Ocircumflex
ENCODING 212
SWIDTH 573 0
DWIDTH 12 0
BBX 11 16 2 1
BITMAP
0180
02c0
0440
0000
0780
18c0
2060
4020
4020
8020
8020
8040
8040
c080
6300
3e00
ENDCHAR
STARTCHAR Ohungarumlaut
ENCODING 213
SWIDTH 573 0
DWIDTH 12 0
BBX 12 16 2 1
BITMAP
0120
0240
0000
0000
0780
18c0
2060
4020
4020
8020
8020
8040
8040
c080
6300
3e00
ENDCHAR
STARTCHAR Odieresis
ENCODING 214
SWIDTH 573 0
DWIDTH 12 0
BBX 11 16 2 1
BITMAP
0360
0360
0000
0000
0780
18c0
2060
4020
4020
8020
8020
8040
8040
c080
6300
3e00
ENDCHAR
STARTCHAR multiply
ENCODING 215
SWIDTH 573 0
DWIDTH 12 0
BBX 8 7 4 4
BITMAP
c3
67
3e
18
3c
66
c3
ENDCHAR
STARTCHAR Rcaron
ENCODING 216
SWIDTH 573 0
DWIDTH 12 0
BBX 11 16 1 1
BITMAP
0220
0340
0180
0000
3fc0
0820
0820
1020
1060
10c0
1f80
1100
2100
2080
2080
f8e0
ENDCHAR
STARTCHAR Uring
ENCODING 217
SWIDTH 573 0
DWIDTH 12 0
BBX 12 16 3 1
BITMAP
0300
0480
0300
0000
f9f0
4040
4040
4080
4080
4080
8080
8080
8100
8100
c200
7c00
ENDCHAR
STARTCHAR Uacute
ENCODING 218
SWIDTH 573 0
DWIDTH 12 0
BBX 12 16 3 1
BITMAP
0180
0200
0000
0000
f9f0
4040
4040
4080
4080
4080
8080
8080
8100
8100
c200
7c00
ENDCHAR
STARTCHAR Uhungarumlaut
ENCODING 219
SWIDTH 573 0
DWIDTH 12 0
BBX 12 16 3 1
BITMAP
0240
0480
0000
0000
f9f0
4040
4040
4080
4080
4080
8080
8080
8100
8100
c200
7c00
ENDCHAR
STARTCHAR Udieresis
ENCODING 220
SWIDTH 573 0
DWIDTH 12 0
BBX 12 16 3 1
BITMAP
06c0
06c0
0000
0000
f9f0
4040
4040
4080
4080
4080
8080
8080
8100
8100
c200
7c00
ENDCHAR
STARTCHAR Yacute
ENCODING 221
SWIDTH 573 0
DWIDTH 12 0
BBX 11 16 3 1
BITMAP
0180
0200
0000
0000
f1e0
2080
2100
2100
1200
1400
1800
0800
0800
1000
1000
fc00
ENDCHAR
STARTCHAR Tcedilla
ENCODING 222
SWIDTH 573 0
DWIDTH 12 0
BBX 12 15 2 -2
BITMAP
3ff0
4210
4220
4220
4420
0400
0400
0400
0c00
0800
0800
7e00
0c00
0400
3c00
ENDCHAR
STARTCHAR germandbls
ENCODING 223
SWIDTH 573 0
DWIDTH 12 0
BBX 11 13 1 1
BITMAP
03c0
0420
0820
0860
10c0
1300
1180
10c0
1040
2040
2040
2080
e700
ENDCHAR
STARTCHAR racute
ENCODING 224
SWIDTH 573 0
DWIDTH 12 0
BBX 12 13 1 1
BITMAP
0180
0200
0000
0000
3de0
0f30
0c00
0800
0800
1800
1000
1000
ff00
ENDCHAR
STARTCHAR aacute
ENCODING 225
SWIDTH 573 0
DWIDTH 12 0
BBX 10 13 2 1
BITMAP
0300
0400
0000
0000
1f00
0080
0080
3f80
6080
8100
8100
8700
79c0
ENDCHAR
STARTCHAR acircumflex
ENCODING 226
SWIDTH 573 0
DWIDTH 12 0
BBX 10 13 2 1
BITMAP
0300
0d80
0000
0000
1f00
0080
0080
3f80
6080
8100
8100
8700
79c0
ENDCHAR
STARTCHAR abreve
ENCODING 227
SWIDTH 573 0
DWIDTH 12 0
BBX 11 13 2 1
BITMAP
0c60
07c0
0000
0000
1f00
0080
0080
3f80
6080
8100
8100
8700
79c0
ENDCHAR
STARTCHAR adieresis
ENCODING 228
SWIDTH 573 0
DWIDTH 12 0
BBX 10 13 2 1
BITMAP
06c0
06c0
0000
0000
1f00
0080
0080
3f80
6080
8100
8100
8700
79c0
ENDCHAR
STARTCHAR lacute
ENCODING 229
SWIDTH 573 0
DWIDTH 12 0
BBX 9 17 2 1
BITMAP
0300
0400
0000
0000
1f00
0300
0200
0200
0200
0600
0400
0400
0400
0c00
0c00
0800
ff80
ENDCHAR
STARTCHAR cacute
ENCODING 230
SWIDTH 573 0
DWIDTH 12 0
BBX 11 13 2 1
BITMAP
0300
0400
0000
0000
0fa0
30c0
4040
c000
8000
8000
8000
4180
3e00
ENDCHAR
STARTCHAR ccedilla
ENCODING 231
SWIDTH 573 0
DWIDTH 12 0
BBX 11 12 2 -2
BITMAP
0f60
30c0
4040
c000
8000
8000
8000
4180
3e00
1800
0400
3800
ENDCHAR
STARTCHAR ccaron
ENCODING 232
SWIDTH 573 0
DWIDTH 12 0
BBX 11 13 2 1
BITMAP
0980
0700
0000
0000
0fa0
30c0
4040
c000
8000
8000
8000
4180
3e00
ENDCHAR
STARTCHAR eacute
ENCODING 233
SWIDTH 573 0
DWIDTH 12 0
BBX 10 13 2 1
BITMAP
0300
0400
0000
0000
0f80
30c0
6040
c040
ffc0
8000
8000
4080
3f00
ENDCHAR
STARTCHAR eogonek
ENCODING 234
SWIDTH 573 0
DWIDTH 12 0
BBX 10 11 2 -1
BITMAP
0f80
30c0
6040
c040
ffc0
8000
8000
4180
3e00
0800
0c00
ENDCHAR
STARTCHAR edieresis
ENCODING 235
SWIDTH 573 0
DWIDTH 12 0
BBX 10 13 2 1
BITMAP
06c0
06c0
0000
0000
0f80
30c0
6040
c040
ffc0
8000
8000
4080
3f00
ENDCHAR
STARTCHAR ecaron
ENCODING 236
SWIDTH 573 0
DWIDTH 12 0
BBX 10 13 2 1
BITMAP
0980
0700
0000
0000
0f80
30c0
6040
c040
ffc0
8000
8000
4080
3f00
ENDCHAR
STARTCHAR iacute
ENCODING 237
SWIDTH 573 0
DWIDTH 12 0
BBX 9 13 2 1
BITMAP
0300
0400
0000
0000
3e00
0200
0600
0400
0400
0400
0c00
0800
ff80
ENDCHAR
STARTCHAR icircumflex
ENCODING 238
SWIDTH 573 0
DWIDTH 12 0
BBX 9 13 2 1
BITMAP
0300
0d80
0000
0000
3e00
0200
0600
0400
0400
0400
0c00
0800
ff80
ENDCHAR
STARTCHAR dcaron
ENCODING 239
SWIDTH 573 0
DWIDTH 12 0
BBX 16 13 2 1
BITMAP
0006
0028
0020
0060
1f40
31c0
40c0
c0c0
8080
8080
8180
4380
3dc0
ENDCHAR
STARTCHAR dbar
ENCODING 240
SWIDTH 573 0
DWIDTH 12 0
BBX 12 12 2 1
BITMAP
0020
0ff0
0040
1f40
31c0
40c0
c0c0
8080
8080
8180
4380
3dc0
ENDCHAR
STARTCHAR nacute
ENCODING 241
SWIDTH 573 0
DWIDTH 12 0
BBX 11 13 1 1
BITMAP
0180
0200
0000
0000
73c0
1c60
1020
1060
2040
2040
2040
20c0
f3e0
ENDCHAR
STARTCHAR ncaron
ENCODING 242
SWIDTH 573 0
DWIDTH 12 0
BBX 11 13 1 1
BITMAP
04c0
0380
0000
0000
73c0
1c60
1020
1060
2040
2040
2040
20c0
f3e0
ENDCHAR
STARTCHAR oacute
ENCODING 243
SWIDTH 573 0
DWIDTH 12 0
BBX 10 13 2 1
BITMAP
0300
0400
0000
0000
0f80
30c0
4040
8040
8040
8040
8080
4100
3e00
ENDCHAR
STARTCHAR ocircumflex
ENCODING 244
SWIDTH 573 0
DWIDTH 12 0
BBX 10 13 2 1
BITMAP
0300
0d80
0000
0000
0f80
30c0
4040
8040
8040
8040
8080
4100
3e00
ENDCHAR
STARTCHAR ohungarumlaut
ENCODING 245
SWIDTH 573 0
DWIDTH 12 0
BBX 11 13 2 1
BITMAP
0240
0480
0000
0000
0f80
30c0
4040
8040
8040
8040
8080
4100
3e00
ENDCHAR
STARTCHAR odieresis
ENCODING 246
SWIDTH 573 0
DWIDTH 12 0
BBX 10 13 2 1
BITMAP
06c0
06c0
0000
0000
0f80
30c0
4040
8040
8040
8040
8080
4100
3e00
ENDCHAR
STARTCHAR divide
ENCODING 247
SWIDTH 573 0
DWIDTH 12 0
BBX 10 10 3 2
BITMAP
1800
1800
0000
0000
ffc0
0000
0000
0000
1800
1800
ENDCHAR
STARTCHAR rcaron
ENCODING 248
SWIDTH 573 0
DWIDTH 12 0
BBX 12 13 1 1
BITMAP
04c0
0380
0000
0000
3de0
0f30
0c00
0800
0800
1800
1000
1000
ff00
ENDCHAR
STARTCHAR uring
ENCODING 249
SWIDTH 573 0
DWIDTH 12 0
BBX 10 14 2 1
BITMAP
0600
0900
0d00
0600
0000
e1c0
20c0
2080
2080
4080
4080
4100
4300
3dc0
ENDCHAR
STARTCHAR uacute
ENCODING 250
SWIDTH 573 0
DWIDTH 12 0
BBX 10 13 2 1
BITMAP
0300
0400
0000
0000
e1c0
20c0
2080
2080
4080
4080
4100
4300
3dc0
ENDCHAR
STARTCHAR uhungarumlaut
ENCODING 251
SWIDTH 573 0
DWIDTH 12 0
BBX 11 13 2 1
BITMAP
0240
0480
0000
0000
e1c0
20c0
2080
2080
4080
4080
4100
4300
3dc0
ENDCHAR
STARTCHAR udieresis
ENCODING 252
SWIDTH 573 0
DWIDTH 12 0
BBX 10 13 2 1
BITMAP
06c0
06c0
0000
0000
e1c0
20c0
2080
2080
4080
4080
4100
4300
3dc0
ENDCHAR
STARTCHAR yacute
ENCODING 253
SWIDTH 573 0
DWIDTH 12 0
BBX 12 16 2 -2
BITMAP
0300
0400
0000
0000
f9f0
2040
20c0
6080
4080
4080
4180
2700
3d00
0100
0200
7c00
ENDCHAR
STARTCHAR tcedilla
ENCODING 254
SWIDTH 573 0
DWIDTH 12 0
BBX 7 15 4 -2
BITMAP
20
20
20
fe
40
40
40
c0
80
80
82
7c
30
10
f0
ENDCHAR
STARTCHAR dotaccent
ENCODING 255
SWIDTH 573 0
DWIDTH 12 0
BBX 1 2 8 12
BITMAP
80
80
ENDCHAR
ENDFONT
